<?xml version="1.0" encoding="UTF-8" standalone="no"?>
<svg xmlns:dc="http://purl.org/dc/elements/1.1/" xmlns:cc="http://creativecommons.org/ns#" xmlns:rdf="http://www.w3.org/1999/02/22-rdf-syntax-ns#" xmlns:svg="http://www.w3.org/2000/svg" xmlns="http://www.w3.org/2000/svg" xmlns:sodipodi="http://sodipodi.sourceforge.net/DTD/sodipodi-0.dtd" xmlns:inkscape="http://www.inkscape.org/namespaces/inkscape" id="svg9" version="1.1" height="128" width="128" sodipodi:docname="favicon_2.svg" inkscape:version="1.0.1 (3bc2e813f5, 2020-09-07)">
  <sodipodi:namedview pagecolor="#ffffff" bordercolor="#666666" borderopacity="1" objecttolerance="10" gridtolerance="10" guidetolerance="10" inkscape:pageopacity="0" inkscape:pageshadow="2" inkscape:window-width="1799" inkscape:window-height="913" id="namedview8" showgrid="false" inkscape:snap-global="false" inkscape:zoom="2.8710938" inkscape:cx="98.506874" inkscape:cy="81.717501" inkscape:window-x="0" inkscape:window-y="37" inkscape:window-maximized="0" inkscape:current-layer="svg9" />
  <defs id="defs13">
    <clipPath clipPathUnits="userSpaceOnUse" id="clipPath873">
      <ellipse style="opacity:0.4;fill:#000000;fill-rule:evenodd;stroke-width:0.497154;stop-color:#000000" id="circle875" cx="351.39807" cy="543.82135" rx="63.627289" ry="63.644463" />
    </clipPath>
  </defs>
  <title id="title2">Blue Earth Icon Element</title>
  <desc id="desc4">This icon is a part of Clarity icon theme</desc>
  <metadata id="metadata6">
    <rdf:RDF>
      <cc:Work rdf:about="">
        <dc:title>Blue Earth Icon Element</dc:title>
        <dc:description>This icon is a part of Clarity icon theme</dc:description>
        <dc:creator>
          <cc:Agent>
            <dc:title>Jakub Jankiewicz</dc:title>
          </cc:Agent>
        </dc:creator>
        <dc:rights>
          <cc:Agent>
            <dc:title>Jakub Jankiewicz</dc:title>
          </cc:Agent>
        </dc:rights>
        <dc:date>2010</dc:date>
        <dc:format>image/svg+xml</dc:format>
        <dc:type rdf:resource="http://purl.org/dc/dcmitype/StillImage" />
        <cc:license rdf:resource="http://creativecommons.org/licenses/by-sa/3.0/" />
      </cc:Work>
    </rdf:RDF>
  </metadata>
  <path style="fill:#276aef;fill-opacity:1;stroke:none;stroke-width:2.38382" d="m 63.999998,-1e-6 C 28.64986,-10e-7 0,28.642122 0,63.982736 0,99.324641 28.64986,128 63.999998,128 99.346907,128 128,99.324971 128,63.982736 128,28.642122 99.346907,-10e-7 63.999998,-10e-7 Z m 0,4.9031566 c 1.043921,0 2.077925,0.015731 3.108496,0.069074 l 3.315679,1.312113 -2.832151,7.1820844 c -3.461278,1.600496 -6.720013,2.879828 -10.361583,4.005397 l -2.34863,3.729162 -1.899619,1.070404 -2.832158,-5.59374 2.141385,-2.140814 V 12.396021 L 46.868866,8.6668601 48.526711,7.0785158 51.635192,6.215283 52.084187,6.111696 C 55.932904,5.3253454 59.91713,4.9031676 63.999998,4.9031676 Z m -26.076624,6.0771504 0.20723,1.139467 4.490013,0.552467 1.174316,2.382519 2.590391,1.070408 -2.348626,2.140816 c -1.57206,-1.06527 -3.16102,-2.144335 -4.73178,-3.211224 l -2.34863,-0.794172 c -1.035395,0.691809 -2.057333,1.422097 -3.073935,2.140815 l -1.174313,2.658754 h -2.348615 l 1.1743,-2.934989 1.899622,-1.588345 -0.103615,-1.070409 c 0.41946,-0.254668 0.851696,-0.515208 1.277928,-0.759643 l 0.241779,0.483407 0.41446,-0.86323 c 0.866751,-0.482478 1.766527,-0.907204 2.659475,-1.346641 z m -9.912578,1.96817 h 0.103616 c -0.0525,0.037 -0.08574,0.100965 -0.138113,0.138124 l 0.03447,-0.138124 z m 65.865094,0.03451 c 1.920048,1.125114 3.752716,2.366866 5.526162,3.694634 h -1.105218 l 3.039376,3.176691 0.86347,-0.96682 c 10.42432,8.832136 17.71994,21.213813 20.06692,35.288914 -0.44323,-0.411608 -0.893,-0.831021 -1.34701,-1.243054 l -2.72854,0.414348 -2.45223,-2.796868 v 3.452927 l 2.10684,1.622874 1.41608,1.588349 1.89962,-2.140816 c 0.47506,0.889561 0.94424,1.769194 1.41609,2.658753 v 2.693284 l -2.1414,2.382515 -3.90287,2.658748 -2.83214,2.83141 c 1.37288,-0.09892 2.74126,-0.237635 4.14462,-0.414348 v 1.86459 l -2.83218,6.940376 -2.59037,2.934973 -2.10684,4.523338 v 7.458335 l 0.69075,2.934974 -1.17431,1.346654 -2.59039,1.588342 -2.72854,2.278942 2.24501,2.520619 -3.03941,2.69329 0.58717,1.72647 -2.17594,2.45157 c -1.13523,0.95946 -2.31672,1.88942 -3.522955,2.76233 h -1.968684 l -2.590397,1.58837 H 92.39071 v -2.14084 l -0.725305,-4.28162 c -0.912173,-2.67839 -1.83162,-5.31698 -2.797603,-7.976252 0,-1.962934 0.08988,-3.907371 0.207182,-5.869969 l 1.208833,-2.658773 -1.657863,-3.211221 0.103711,-4.419751 -2.244983,-2.520626 1.139764,-3.660104 -1.830547,-2.071765 h -3.177541 l -1.070696,-1.208506 -3.177565,2.002689 -1.312448,-1.450218 -2.935789,2.520626 c -2.001418,-2.268308 -4.005412,-4.535566 -6.009715,-6.802253 l -2.348622,-5.593746 2.106846,-3.211227 -1.174311,-1.312113 2.590398,-6.146208 c 2.128207,-2.646636 4.348371,-5.186148 6.596882,-7.734557 l 4.006461,-1.070407 4.490013,-0.552469 3.073926,0.828703 4.351876,4.385217 1.519679,-1.726464 2.141415,-0.276233 4.006461,1.346641 h 3.039401 l 2.14139,-1.86458 0.93256,-1.346643 -2.10687,-1.346641 -3.557475,-0.241704 c -0.981553,-1.361248 -1.873962,-2.795863 -3.03938,-4.005395 l -1.208858,0.51794 -0.449005,3.487456 -2.141392,-2.417049 -0.449006,-2.658754 -2.348621,-1.86458 h -0.967081 l 2.348621,2.658753 -0.932534,2.417048 -1.86507,0.517939 1.174287,-2.382517 -2.141368,-1.070407 -1.865092,-2.140816 -3.557479,0.794173 -0.449006,1.070407 -2.141392,1.346643 -1.174286,2.934986 -2.935789,1.450229 -1.312473,-1.450229 h -1.416086 v -4.834098 l 3.073926,-1.588345 h 2.348621 l -0.448982,-1.86458 -1.899639,-1.86458 3.177565,-0.656057 1.761454,-2.002699 1.416087,-2.417047 h 2.590398 l -0.690783,-1.864583 1.657864,-1.070407 v 2.140816 l 3.522932,0.794174 3.522932,-2.93499 0.241776,-1.312111 3.073951,-2.140813 c -1.108389,0.137766 -2.232658,0.223263 -3.315727,0.51794 v -2.382521 l 1.174311,-2.693285 H 93.08154 l -2.590397,2.41705 -0.690759,1.346643 0.690759,1.86458 -1.174311,3.176693 -1.865094,-1.070409 -1.657839,-1.864578 -2.590373,1.864578 -0.967105,-4.247098 4.490013,-2.934989 v -1.588346 l 2.832174,-1.86458 4.317329,-1.035878 z m -62.653011,1.830054 -0.138113,2.106284 -2.624927,2.417047 -5.871559,3.452929 0.690773,2.417048 4.490013,1.864582 0.690773,3.211221 1.657843,-3.487457 2.590408,-1.070407 -0.241778,-1.588347 2.624938,-4.523334 3.281166,1.864581 -0.483543,2.140814 2.832158,-1.070407 1.174315,2.38252 -0.448994,1.622877 1.657842,0.517939 1.416092,1.346641 -0.483541,1.588346 -4.006485,1.34664 h -2.832156 l -4.006473,1.864583 h 6.355087 l -2.106853,3.176691 -4.248234,0.8287 -1.899635,2.658756 -3.281166,1.312113 -1.657842,4.005394 -4.490027,3.729161 -0.448995,5.352036 -2.590392,-3.211223 -3.557478,-0.794173 -0.449009,1.588347 h -2.832158 l -3.5574759,2.693283 -0.4489942,3.176693 0.2417643,2.934987 2.3486288,1.346652 1.657841,-0.794184 1.623325,-2.140812 h 1.657841 c -0.237699,1.867624 -0.454707,3.725796 -0.690772,5.593745 l 2.832171,-0.276247 v 2.934996 l 0.932537,2.693286 c 1.143383,0.702823 2.72237,0.734381 4.006485,1.104943 v -0.587008 l 4.248237,-3.729156 4.006485,2.934997 4.697245,-0.517959 1.899618,5.041274 3.522945,0.794182 1.899619,3.763693 c 3.840995,1.975256 7.666043,3.951441 11.535888,5.86997 l -0.483542,3.970866 -2.797623,4.005403 0.448993,5.352034 -1.865071,4.24709 -3.557478,0.8287 -1.62331,2.38252 0.690775,1.58835 -2.348632,5.86997 -3.073933,1.07042 -0.690773,1.86457 -1.174315,1.17399 c -3.004664,-1.47898 -5.841333,-3.23148 -8.531026,-5.17937 l 0.725308,-3.17671 -1.41608,-3.21122 0.241779,-5.593719 -1.899621,-2.658774 -4.213717,-3.763668 -4.248249,-7.734559 1.174314,-3.970867 -0.483541,-1.070406 1.416091,-2.140814 1.899621,-5.07581 V 73.063926 L 21.172195,72.407868 19.272575,72.684092 15.991409,70.267054 13.850025,67.608305 8.9110006,66.26165 4.9045303,63.913662 C 4.9281333,43.41597 15.369619,25.388544 31.222937,14.813049 Z m 39.44307,1.588343 1.416086,1.588347 -2.832173,1.864581 -1.65784,-1.035877 0.241776,-1.622877 0.932535,0.276236 z m -31.119267,0.517942 2.348628,1.070406 v 1.864581 h -1.865085 l -2.348629,-1.588345 z m 37.267144,6.14621 h 1.38154 c 0.693619,1.415063 1.34542,2.806268 1.899616,4.281629 l 1.657862,1.588347 -1.899639,1.86458 -2.590374,0.552467 0.483528,-3.21122 v -2.41705 l -0.932533,-1.070406 z m -0.967081,3.211222 0.967081,2.382521 -2.141393,1.070407 -0.483552,-2.93499 z m -32.535355,4.799568 2.141384,1.588344 -1.416076,2.140816 z m 61.5823,20.821148 -0.72531,0.794173 1.0707,3.867277 2.00324,2.244405 c 1.14305,3.298896 2.26365,6.445786 3.7647,9.599135 0.85477,0 1.69012,-0.01192 2.52133,-0.06912 l -1.79603,-2.07174 0.93254,-2.382525 -1.89962,-2.140813 -3.17753,-6.802263 -2.69402,-3.038573 z M 28.908797,115.56946 c 0.896482,0.6109 1.799469,1.1964 2.728545,1.76099 -1.246035,-0.72073 -2.381363,-1.41645 -2.728545,-1.76099 z" id="shape" />
  <g aria-label="λ" id="text840" style="font-style:normal;font-variant:normal;font-weight:normal;font-stretch:normal;font-size:146.362px;line-height:1.25;font-family:FreeSerif;-inkscape-font-specification:FreeSerif;letter-spacing:0px;word-spacing:0px;fill:#ffffff;stroke-width:7.31809" transform="matrix(1.0058577,0,0,1.0055863,-289.45647,-482.85928)" clip-path="url(#clipPath873)">
    <path id="path849" style="font-style:normal;font-variant:normal;font-weight:normal;font-stretch:normal;font-family:FreeSerif;-inkscape-font-specification:FreeSerif;fill:#ffffff;stroke-width:7.31809" sodipodi:type="inkscape:offset" inkscape:radius="1.0769166" inkscape:original="M 351.31836 486.98438 C 346.59393 486.98438 342.4571 489.22253 340.22461 493.19141 C 338.1939 496.80157 337.20703 500.95996 337.20703 505.48633 L 337.20703 507.97461 C 337.20688 508.75717 337.52868 509.53454 338.08203 510.08789 C 338.63539 510.64124 339.41274 510.96305 340.19531 510.96289 L 342.97656 510.96289 C 344.26667 510.96232 345.50094 510.02865 345.85156 508.78711 C 346.4972 506.50591 347.3441 505.0079 348.09375 504.22852 C 348.87392 503.41738 349.38037 503.20506 350.43945 503.20508 C 351.72727 503.20508 352.66134 503.51298 353.65039 504.23828 C 353.68639 504.26448 353.72269 504.28985 353.75977 504.31445 C 354.65257 504.90966 355.47385 505.88691 356.18359 507.54297 C 356.19829 507.57767 356.21447 507.61237 356.23047 507.64648 C 356.23113 507.64748 356.23142 507.64939 356.23242 507.65039 C 357.16461 509.60798 357.84204 511.29569 358.27148 512.66992 C 358.27214 512.67092 358.27244 512.67283 358.27344 512.67383 C 358.28994 512.72593 358.30677 512.77698 358.32617 512.82812 C 358.8389 514.19535 359.40216 516.14432 359.96875 518.59961 C 360.42335 520.5695 360.67208 521.51174 360.92383 522.39844 L 335.2207 587.52344 C 334.86479 588.42524 334.98399 589.49918 335.5293 590.30078 C 336.07461 591.10238 337.03051 591.60726 338 591.60742 L 350.43945 591.60742 C 351.63978 591.60772 352.80084 590.81027 353.23047 589.68945 L 368.7793 549.11523 L 375.06055 573.69727 C 375.54768 575.74091 375.93978 577.27388 376.26367 578.35352 C 376.26467 578.35652 376.26658 578.35833 376.26758 578.36133 C 376.27658 578.39003 376.28502 578.41887 376.29492 578.44727 C 376.63012 579.4522 377.17465 580.88094 377.96289 582.85156 C 377.96589 582.85656 377.9677 582.86199 377.9707 582.86719 C 377.9747 582.87739 377.97968 582.88834 377.98438 582.89844 C 377.98438 582.89844 377.98633 582.90039 377.98633 582.90039 C 377.98833 582.90539 377.99214 582.91112 377.99414 582.91602 C 378.83659 584.91413 379.70096 586.54271 380.74805 587.85156 C 380.78325 587.89596 380.82166 587.94006 380.85938 587.98242 L 380.86133 587.98438 C 381.98205 589.22963 383.35845 590.28748 384.9375 591.19336 C 384.9375 591.19336 384.93945 591.19531 384.93945 591.19531 C 386.82481 592.31964 388.94976 592.92578 391.13086 592.92578 C 395.62075 592.92578 399.575 590.8106 401.41992 587.01172 C 403.12728 583.58927 403.92578 579.60134 403.92578 575.1543 L 403.92578 570.4707 C 403.92594 569.68814 403.60413 568.91078 403.05078 568.35742 C 402.49743 567.80407 401.72006 567.48226 400.9375 567.48242 L 398.00977 567.48242 C 397.25127 567.48261 396.49616 567.78317 395.94727 568.30664 C 395.39837 568.83011 395.06153 569.57051 395.02539 570.32812 C 394.95259 571.85727 394.50717 573.26259 393.58008 574.73047 C 393.57508 574.73747 393.57111 574.74475 393.56641 574.75195 C 393.56341 574.75695 393.55769 574.76238 393.55469 574.76758 C 393.21951 575.31605 392.96786 575.59171 392.69336 575.74609 C 392.41887 575.90048 392.05777 575.97071 391.42188 575.9707 C 390.19153 575.9707 389.38578 575.62859 388.24023 574.33984 C 388.23623 574.33484 388.23026 574.33087 388.22656 574.32617 L 388.22266 574.32227 C 387.69796 573.74234 386.89247 572.36699 386.03125 570.34375 C 385.17004 568.32051 384.22847 565.63614 383.32617 562.35938 C 383.32417 562.35037 383.32231 562.34238 383.32031 562.33398 C 383.31987 562.33298 383.31836 562.33108 383.31836 562.33008 L 383.31445 562.31641 C 383.31345 562.31241 383.31155 562.30839 383.31055 562.30469 L 368.97461 512.27539 C 368.97461 512.27539 368.97266 512.27344 368.97266 512.27344 C 368.96096 512.23324 368.94885 512.19394 368.93555 512.1543 L 368.93555 512.15234 C 368.94805 512.18964 368.90401 512.04802 368.84961 511.86719 C 368.79481 511.68522 368.71619 511.42247 368.61719 511.08984 C 368.42088 510.43025 368.1414 509.48624 367.80469 508.33203 C 367.24397 506.00525 366.77644 504.30898 366.32812 503.04688 C 365.96495 501.62622 365.35507 499.96883 364.4707 497.90234 L 364.4668 497.89453 C 363.52682 495.60025 362.56792 493.76552 361.38867 492.32422 C 360.2824 490.97209 358.91115 489.79556 357.32422 488.77539 C 355.51745 487.61389 353.44415 486.98437 351.31836 486.98438 z " d="m 351.31836,485.9082 c -5.06455,0 -9.60683,2.44231 -12.0332,6.75586 -2.13086,3.78821 -3.1543,8.13937 -3.1543,12.82227 v 2.48828 c -2.1e-4,1.07793 0.42712,2.11267 1.18945,2.875 0.76232,0.76231 1.79705,1.18967 2.875,1.18945 h 2.78125 c 1.80939,-8e-4 3.42022,-1.2172 3.91211,-2.95898 0.61208,-2.16263 1.42784,-3.53092 1.98047,-4.10547 0.68384,-0.71099 0.65517,-0.69338 1.57031,-0.69336 1.11617,0 1.72871,0.20613 2.57422,0.82617 a 1.0770243,1.0770243 0 0 0 0.004,0.002 c 0.0466,0.0339 0.0935,0.0677 0.14453,0.10156 0.69375,0.4625 1.37957,1.23528 2.03125,2.75586 0.0148,0.0347 0.0269,0.0577 0.0391,0.084 0.008,0.0164 0.0172,0.0395 0.0234,0.0527 a 1.0770243,1.0770243 0 0 0 0.004,0.01 c 0.91596,1.92352 1.57623,3.57088 1.98437,4.87695 a 1.0770243,1.0770243 0 0 0 0.002,0.008 l 0.002,0.004 c 0.005,0.0171 0.0134,0.0417 0.0195,0.0606 -7.3e-4,-0.002 5.4e-4,0.003 0,0.002 1.6e-4,4e-4 0.002,0.002 0.002,0.002 -6.3e-4,-0.002 0.001,0.002 0.002,0.004 0.0146,0.0443 0.0268,0.0877 0.0469,0.14063 0.48541,1.29494 1.04242,3.20783 1.60156,5.63086 0.41321,1.79052 0.64221,2.64857 0.875,3.48242 l -25.57617,64.80469 c -0.49323,1.24975 -0.33594,2.66623 0.41992,3.77734 0.75623,1.11165 2.01807,1.77712 3.36133,1.77734 h 12.43945 c 1.67748,4.2e-4 3.19626,-1.04248 3.79688,-2.60937 l 14.33789,-37.41406 5.44336,21.30468 c 0.48668,2.04095 0.88031,3.58215 1.21484,4.69727 a 1.0770243,1.0770243 0 0 0 0.01,0.0312 c 0.09,0.26999 0.0919,0.2718 0.004,0.008 0.006,0.0194 0.0127,0.0463 0.0312,0.0996 0.34918,1.0456 0.89651,2.47856 1.68555,4.45117 a 1.0770243,1.0770243 0 0 0 0.0352,0.0801 1.0770243,1.0770243 0 0 0 0.004,0.006 c 0.002,0.003 0.005,0.013 0.006,0.0156 a 1.0770243,1.0770243 0 0 0 0.0293,0.0527 l -0.01,-0.0234 a 1.0770243,1.0770243 0 0 0 0.0117,0.0234 c 0,0 -0.002,0 -0.002,0 a 1.0770243,1.0770243 0 0 0 0.0703,0.11523 c 0.83528,1.95104 1.70131,3.63007 2.79883,5.00196 0.0557,0.0701 0.10582,0.12792 0.14844,0.17578 a 1.0770243,1.0770243 0 0 0 0.006,0.006 c 1.21114,1.34572 2.68315,2.47033 4.34179,3.42187 2.04169,1.21454 4.35291,1.875 6.72852,1.875 4.82408,0 9.20928,-2.3149 11.25195,-6.50976 v -0.002 c 1.7961,-3.60108 2.61914,-7.76067 2.61914,-12.33593 v -4.6836 c 2.2e-4,-1.07794 -0.42714,-2.11267 -1.18945,-2.875 -0.76232,-0.76232 -1.79706,-1.18967 -2.875,-1.18945 h -2.92773 c -1.04281,2.6e-4 -2.04977,0.39927 -2.80665,1.12109 -0.75668,0.72163 -1.20418,1.70763 -1.2539,2.75 -0.0643,1.35067 -0.43463,2.53949 -1.27734,3.875 -8.6e-4,0.001 -0.001,0.003 -0.002,0.004 0.002,-0.003 -0.009,0.0132 -0.006,0.008 a 1.0770243,1.0770243 0 0 0 -0.0215,0.0332 c 0.0336,-0.0561 -0.0206,0.0335 -0.006,0.008 -0.29384,0.48082 -0.4285,0.57783 -0.4707,0.60156 -0.0444,0.025 -0.18755,0.0879 -0.74414,0.0879 -1.03072,0 -1.33513,-0.0975 -2.37696,-1.26953 l 0.0371,0.043 c -0.15682,-0.19602 -0.17201,-0.21391 -0.01,-0.008 a 1.0770243,1.0770243 0 0 0 -0.0508,-0.0606 c -0.32425,-0.35839 -1.16467,-1.71532 -2,-3.67773 -0.83755,-1.96767 -1.76489,-4.61064 -2.65625,-7.84766 a 1.0770243,1.0770243 0 0 0 -0.002,-0.004 1.0770243,1.0770243 0 0 0 -0.002,-0.006 1.0770243,1.0770243 0 0 0 -0.002,-0.01 l -0.002,-0.004 c -0.007,-0.0284 0.001,0.004 -0.002,-0.008 v -0.004 c 0,1e-5 -0.002,-0.005 -0.002,-0.006 l -0.002,-0.004 c -2.6e-4,-7.4e-4 -0.002,-0.005 -0.002,-0.006 a 1.0770243,1.0770243 0 0 0 0,-0.002 c -1.3e-4,-3.6e-4 1.4e-4,-0.002 0,-0.002 a 1.0770243,1.0770243 0 0 0 -0.004,-0.0117 l -0.002,-0.008 a 1.0770243,1.0770243 0 0 0 -0.002,-0.004 l -14.33203,-50.01757 a 1.0770243,1.0770243 0 0 0 -0.0254,-0.0742 1.0770243,1.0770243 0 0 0 -0.002,-0.008 c -0.004,-0.0142 -0.007,-0.0284 -0.0117,-0.043 -0.001,-0.004 -0.003,-0.008 -0.004,-0.0117 -0.003,-0.009 -0.007,-0.0199 -0.01,-0.0293 -0.003,-0.0111 -0.005,-0.0205 -0.01,-0.0352 -0.0165,-0.054 -0.04,-0.13279 -0.0664,-0.2207 -0.0543,-0.18021 -0.13366,-0.4416 -0.23242,-0.77344 -0.19243,-0.64654 -0.46876,-1.57883 -0.79688,-2.70312 l -0.0137,-0.0469 c -2.2e-4,-7.5e-4 2.2e-4,-0.001 0,-0.002 -0.54816,-2.27046 -1.00804,-3.94717 -1.4668,-5.25195 -0.001,-0.004 -0.005,-0.01 -0.006,-0.0137 -0.38476,-1.50114 -1.01087,-3.19557 -1.90234,-5.27929 -0.001,-0.003 -6.8e-4,-0.005 -0.002,-0.008 a 1.0770243,1.0770243 0 0 0 -0.0274,-0.0566 l -0.004,-0.008 c -0.95112,-2.31019 -1.93969,-4.22252 -3.20703,-5.77148 -1.18858,-1.45273 -2.65004,-2.7022 -4.31641,-3.77344 -1.97311,-1.26843 -4.24949,-1.96095 -6.58789,-1.96094 z m 33.08398,106.21875 -0.22461,-0.16992 a 1.0770243,1.0770243 0 0 0 0.21094,0.16406 c 0.004,0.003 0.009,0.003 0.0137,0.006 z m -14.41796,-80.14648 0.0273,0.17187 -0.5332,0.0859 c 0.20535,-0.10519 0.49819,-0.25386 0.50586,-0.25781 z" />
  </g>
  <g aria-label="λ" id="text836" style="font-style:normal;font-variant:normal;font-weight:normal;font-stretch:normal;font-size:146.362px;line-height:1.25;font-family:FreeSerif;-inkscape-font-specification:FreeSerif;letter-spacing:0px;word-spacing:0px;fill:#000000;fill-opacity:1;stroke-width:7.31809" transform="matrix(1.0058577,0,0,1.0055863,-287.25597,-486.08561)">
    <path d="m 398.74811,578.36228 c 0,4.09814 -0.73181,7.61083 -2.19543,10.53807 -1.36605,2.82966 -3.90299,4.24449 -7.61083,4.24449 -1.65877,0 -3.21996,-0.43908 -4.68358,-1.31725 -1.36605,-0.7806 -2.48816,-1.65877 -3.36633,-2.63452 -0.78059,-0.97574 -1.56119,-2.39058 -2.34179,-4.2445 -0.7806,-1.95149 -1.31726,-3.36632 -1.60998,-4.2445 -0.29273,-0.97574 -0.68303,-2.48815 -1.1709,-4.53722 l -8.48899,-33.22417 h -0.29273 l -18.73433,48.88491 h -12.44077 l 26.05243,-66.00927 c -0.19515,-0.58544 -0.58544,-2.14664 -1.17089,-4.68358 -0.58545,-2.53694 -1.1709,-4.586 -1.75635,-6.1472 -0.48787,-1.5612 -1.21968,-3.36633 -2.19543,-5.4154 -0.87817,-2.04906 -2.04907,-3.56147 -3.51269,-4.53722 -1.46362,-1.07332 -3.12239,-1.60998 -4.9763,-1.60998 -3.51269,0 -6.00085,2.58573 -7.46447,7.75718 h -2.78087 v -2.48815 c 0,-4.09813 0.87817,-7.70839 2.63451,-10.83079 1.75635,-3.12238 4.58601,-4.68358 8.489,-4.68358 1.56119,0 3.02481,0.43909 4.39086,1.31726 1.36605,0.87817 2.48815,1.85392 3.36632,2.92724 0.87817,1.07332 1.75635,2.6833 2.63452,4.82994 0.87817,2.04907 1.46362,3.65905 1.75634,4.82995 0.3903,1.07332 0.87817,2.82967 1.46362,5.26903 0.68303,2.3418 1.07333,3.65905 1.1709,3.95177 l 14.34348,50.05581 c 1.85391,6.73266 3.70783,11.12352 5.56175,13.17258 1.56119,1.75634 3.36633,2.63451 5.4154,2.63451 2.04907,0 3.61026,-0.87817 4.68358,-2.63451 1.17089,-1.85392 1.80513,-3.80541 1.90271,-5.85448 h 2.92724 z" style="font-style:normal;font-variant:normal;font-weight:normal;font-stretch:normal;font-family:FreeSerif;-inkscape-font-specification:FreeSerif;fill:#000000;fill-opacity:1;stroke-width:7.31809" id="path871" sodipodi:nodetypes="scsccccccccccscccsccsssssccccccscccs" />
  </g>
</svg>
